<svg xmlns="http://www.w3.org/2000/svg" viewBox="0 0 24 24"><path d="M20.269,3.533,20.211,3.5a8.188,8.188,0,0,1-2.117-2.242.515.515,0,0,0-.954.269V17.311a4.466,4.466,0,0,0-3.086-1.186c-2.269,0-4.115,1.542-4.115,3.436S11.785,23,14.054,23s4.116-1.542,4.116-3.436V3.053a7.471,7.471,0,0,0,1.481,1.308l.058.038c1.26.814,2.255,1.457,2.255,3.586,0,1.641-.32,2.871-1.88,3.544a.516.516,0,0,0,.409.947c2.2-.952,2.5-2.805,2.5-4.491C22.994,5.294,21.609,4.4,20.269,3.533ZM14.054,21.966c-1.7,0-3.085-1.079-3.085-2.405s1.384-2.405,3.085-2.405,3.086,1.079,3.086,2.405S15.756,21.966,14.054,21.966Z"/><path d="M11.383,6.166a3.032,3.032,0,0,0,.523-2.6A3.474,3.474,0,0,0,9.951,1.253,3.16,3.16,0,0,0,6.5,2.031a3.164,3.164,0,0,0-3.448-.778A3.474,3.474,0,0,0,1.1,3.57a3.032,3.032,0,0,0,.522,2.6c.827,1.073,4.386,4.264,4.537,4.4a.514.514,0,0,0,.688,0C7,10.43,10.556,7.239,11.383,6.166ZM6.5,9.487a56.416,56.416,0,0,1-4.065-3.95A2.007,2.007,0,0,1,2.1,3.816,2.446,2.446,0,0,1,3.485,2.19a2.324,2.324,0,0,1,2.62.9.511.511,0,0,0,.4.187h0a.515.515,0,0,0,.4-.186c.052-.062,1.285-1.518,2.621-.9a2.449,2.449,0,0,1,1.384,1.626,2.008,2.008,0,0,1-.338,1.721A56.187,56.187,0,0,1,6.5,9.487Z"/></svg>